<mxfile host="app.diagrams.net" modified="2023-03-13T10:11:20.839Z" agent="5.0 (X11; Linux x86_64) AppleWebKit/537.36 (KHTML, like Gecko) Chrome/109.0.0.0 Safari/537.36" etag="RnEbCcVQMzA5RraVhkCD" version="21.0.6" type="github" pages="6">
  <diagram name="AbstractFactory" id="wBLB50ndiuzwH3vPlfpo">
    <mxGraphModel dx="2049" dy="1151" grid="1" gridSize="10" guides="1" tooltips="1" connect="1" arrows="1" fold="1" page="1" pageScale="1" pageWidth="827" pageHeight="1169" math="0" shadow="0">
      <root>
        <mxCell id="0" />
        <mxCell id="1" parent="0" />
        <mxCell id="8-loA80qppVBk1mBf-55-1" value="Invoice (Interface)" style="swimlane;whiteSpace=wrap;html=1;" parent="1" vertex="1">
          <mxGeometry x="361" y="510" width="200" height="250" as="geometry" />
        </mxCell>
        <mxCell id="8-loA80qppVBk1mBf-55-15" value="EniInvoice" style="text;strokeColor=none;align=center;fillColor=none;html=1;verticalAlign=middle;whiteSpace=wrap;rounded=0;" parent="8-loA80qppVBk1mBf-55-1" vertex="1">
          <mxGeometry y="170" width="200" height="40" as="geometry" />
        </mxCell>
        <mxCell id="8-loA80qppVBk1mBf-55-14" value="EcoreInvoice" style="text;strokeColor=none;align=center;fillColor=none;html=1;verticalAlign=middle;whiteSpace=wrap;rounded=0;" parent="8-loA80qppVBk1mBf-55-1" vertex="1">
          <mxGeometry y="210" width="200" height="40" as="geometry" />
        </mxCell>
        <mxCell id="8-loA80qppVBk1mBf-55-13" value="AlphabetInvoice" style="text;strokeColor=none;align=center;fillColor=none;html=1;verticalAlign=middle;whiteSpace=wrap;rounded=0;" parent="8-loA80qppVBk1mBf-55-1" vertex="1">
          <mxGeometry y="130" width="200" height="40" as="geometry" />
        </mxCell>
        <mxCell id="8-loA80qppVBk1mBf-55-12" value="ArvalInvoice" style="text;strokeColor=none;align=center;fillColor=none;html=1;verticalAlign=middle;whiteSpace=wrap;rounded=0;" parent="8-loA80qppVBk1mBf-55-1" vertex="1">
          <mxGeometry y="90" width="200" height="40" as="geometry" />
        </mxCell>
        <mxCell id="8-loA80qppVBk1mBf-55-58" value="send()" style="text;strokeColor=none;align=center;fillColor=none;html=1;verticalAlign=middle;whiteSpace=wrap;rounded=0;" parent="8-loA80qppVBk1mBf-55-1" vertex="1">
          <mxGeometry y="40" width="200" height="30" as="geometry" />
        </mxCell>
        <mxCell id="8-loA80qppVBk1mBf-55-2" value="Export (Interface)" style="swimlane;whiteSpace=wrap;html=1;startSize=23;" parent="1" vertex="1">
          <mxGeometry x="561" y="510" width="200" height="250" as="geometry" />
        </mxCell>
        <mxCell id="8-loA80qppVBk1mBf-55-16" value="EniInvoice" style="text;strokeColor=none;align=center;fillColor=none;html=1;verticalAlign=middle;whiteSpace=wrap;rounded=0;" parent="8-loA80qppVBk1mBf-55-2" vertex="1">
          <mxGeometry y="210" width="200" height="40" as="geometry" />
        </mxCell>
        <mxCell id="8-loA80qppVBk1mBf-55-17" value="ArvalExport" style="text;strokeColor=none;align=center;fillColor=none;html=1;verticalAlign=middle;whiteSpace=wrap;rounded=0;" parent="8-loA80qppVBk1mBf-55-2" vertex="1">
          <mxGeometry y="90" width="200" height="40" as="geometry" />
        </mxCell>
        <mxCell id="8-loA80qppVBk1mBf-55-18" value="AlphabetExport" style="text;strokeColor=none;align=center;fillColor=none;html=1;verticalAlign=middle;whiteSpace=wrap;rounded=0;" parent="8-loA80qppVBk1mBf-55-2" vertex="1">
          <mxGeometry y="130" width="200" height="40" as="geometry" />
        </mxCell>
        <mxCell id="8-loA80qppVBk1mBf-55-19" value="EcoreExport" style="text;strokeColor=none;align=center;fillColor=none;html=1;verticalAlign=middle;whiteSpace=wrap;rounded=0;" parent="8-loA80qppVBk1mBf-55-2" vertex="1">
          <mxGeometry y="170" width="200" height="40" as="geometry" />
        </mxCell>
        <mxCell id="8-loA80qppVBk1mBf-55-59" value="generate()" style="text;strokeColor=none;align=center;fillColor=none;html=1;verticalAlign=middle;whiteSpace=wrap;rounded=0;" parent="8-loA80qppVBk1mBf-55-2" vertex="1">
          <mxGeometry y="40" width="200" height="30" as="geometry" />
        </mxCell>
        <mxCell id="8-loA80qppVBk1mBf-55-3" value="" style="endArrow=none;dashed=1;html=1;rounded=0;" parent="1" edge="1">
          <mxGeometry width="50" height="50" relative="1" as="geometry">
            <mxPoint x="241" y="640" as="sourcePoint" />
            <mxPoint x="967" y="640" as="targetPoint" />
          </mxGeometry>
        </mxCell>
        <mxCell id="8-loA80qppVBk1mBf-55-4" value="" style="endArrow=none;dashed=1;html=1;rounded=0;" parent="1" edge="1">
          <mxGeometry width="50" height="50" relative="1" as="geometry">
            <mxPoint x="241" y="680" as="sourcePoint" />
            <mxPoint x="967" y="680" as="targetPoint" />
          </mxGeometry>
        </mxCell>
        <mxCell id="8-loA80qppVBk1mBf-55-5" value="" style="endArrow=none;dashed=1;html=1;rounded=0;" parent="1" edge="1">
          <mxGeometry width="50" height="50" relative="1" as="geometry">
            <mxPoint x="241" y="720" as="sourcePoint" />
            <mxPoint x="967" y="720" as="targetPoint" />
          </mxGeometry>
        </mxCell>
        <mxCell id="8-loA80qppVBk1mBf-55-6" value="" style="endArrow=none;dashed=1;html=1;rounded=0;" parent="1" edge="1">
          <mxGeometry width="50" height="50" relative="1" as="geometry">
            <mxPoint x="242" y="600" as="sourcePoint" />
            <mxPoint x="967" y="600" as="targetPoint" />
          </mxGeometry>
        </mxCell>
        <mxCell id="8-loA80qppVBk1mBf-55-7" value="" style="endArrow=none;dashed=1;html=1;rounded=0;" parent="1" edge="1">
          <mxGeometry width="50" height="50" relative="1" as="geometry">
            <mxPoint x="240" y="760" as="sourcePoint" />
            <mxPoint x="760" y="760" as="targetPoint" />
          </mxGeometry>
        </mxCell>
        <mxCell id="8-loA80qppVBk1mBf-55-8" value="Arval" style="text;strokeColor=none;align=center;fillColor=none;html=1;verticalAlign=middle;whiteSpace=wrap;rounded=0;" parent="1" vertex="1">
          <mxGeometry x="271" y="605" width="60" height="30" as="geometry" />
        </mxCell>
        <mxCell id="8-loA80qppVBk1mBf-55-9" value="Alphabet" style="text;strokeColor=none;align=center;fillColor=none;html=1;verticalAlign=middle;whiteSpace=wrap;rounded=0;" parent="1" vertex="1">
          <mxGeometry x="269" y="645" width="60" height="30" as="geometry" />
        </mxCell>
        <mxCell id="8-loA80qppVBk1mBf-55-10" value="Ecore" style="text;strokeColor=none;align=center;fillColor=none;html=1;verticalAlign=middle;whiteSpace=wrap;rounded=0;" parent="1" vertex="1">
          <mxGeometry x="269" y="685" width="60" height="30" as="geometry" />
        </mxCell>
        <mxCell id="8-loA80qppVBk1mBf-55-11" value="Eni" style="text;strokeColor=none;align=center;fillColor=none;html=1;verticalAlign=middle;whiteSpace=wrap;rounded=0;" parent="1" vertex="1">
          <mxGeometry x="269" y="726" width="60" height="30" as="geometry" />
        </mxCell>
        <mxCell id="8-loA80qppVBk1mBf-55-62" style="edgeStyle=orthogonalEdgeStyle;rounded=0;orthogonalLoop=1;jettySize=auto;html=1;exitX=0;exitY=0.5;exitDx=0;exitDy=0;entryX=1;entryY=0.25;entryDx=0;entryDy=0;" parent="1" source="8-loA80qppVBk1mBf-55-22" target="8-loA80qppVBk1mBf-55-48" edge="1">
          <mxGeometry relative="1" as="geometry" />
        </mxCell>
        <mxCell id="8-loA80qppVBk1mBf-55-63" style="edgeStyle=orthogonalEdgeStyle;rounded=0;orthogonalLoop=1;jettySize=auto;html=1;exitX=0;exitY=0.25;exitDx=0;exitDy=0;entryX=1;entryY=0.75;entryDx=0;entryDy=0;" parent="1" source="8-loA80qppVBk1mBf-55-22" target="8-loA80qppVBk1mBf-55-56" edge="1">
          <mxGeometry relative="1" as="geometry">
            <Array as="points">
              <mxPoint x="1097" y="400" />
              <mxPoint x="929" y="400" />
              <mxPoint x="929" y="318" />
            </Array>
          </mxGeometry>
        </mxCell>
        <mxCell id="8-loA80qppVBk1mBf-55-22" value="AbstractClientFactory" style="swimlane;whiteSpace=wrap;html=1;" parent="1" vertex="1">
          <mxGeometry x="1097" y="350" width="250" height="600" as="geometry" />
        </mxCell>
        <mxCell id="8-loA80qppVBk1mBf-55-24" value="static createInvoice(): Invoice" style="text;strokeColor=none;align=center;fillColor=none;html=1;verticalAlign=middle;whiteSpace=wrap;rounded=0;" parent="8-loA80qppVBk1mBf-55-22" vertex="1">
          <mxGeometry x="20" y="40" width="200" height="30" as="geometry" />
        </mxCell>
        <mxCell id="8-loA80qppVBk1mBf-55-26" value="static createExport(): Export" style="text;strokeColor=none;align=center;fillColor=none;html=1;verticalAlign=middle;whiteSpace=wrap;rounded=0;" parent="8-loA80qppVBk1mBf-55-22" vertex="1">
          <mxGeometry x="38" y="70" width="160" height="30" as="geometry" />
        </mxCell>
        <mxCell id="8-loA80qppVBk1mBf-55-27" value="ArvalFactory" style="swimlane;whiteSpace=wrap;html=1;" parent="8-loA80qppVBk1mBf-55-22" vertex="1">
          <mxGeometry x="30" y="140" width="190" height="100" as="geometry" />
        </mxCell>
        <mxCell id="8-loA80qppVBk1mBf-55-29" value="AlphabetFactory" style="swimlane;whiteSpace=wrap;html=1;" parent="8-loA80qppVBk1mBf-55-22" vertex="1">
          <mxGeometry x="30" y="250" width="190" height="100" as="geometry" />
        </mxCell>
        <mxCell id="8-loA80qppVBk1mBf-55-31" value="EcoreFactory" style="swimlane;whiteSpace=wrap;html=1;" parent="8-loA80qppVBk1mBf-55-22" vertex="1">
          <mxGeometry x="30" y="360" width="190" height="100" as="geometry" />
        </mxCell>
        <mxCell id="8-loA80qppVBk1mBf-55-33" style="edgeStyle=orthogonalEdgeStyle;rounded=0;orthogonalLoop=1;jettySize=auto;html=1;exitX=0.5;exitY=0;exitDx=0;exitDy=0;entryX=0.499;entryY=0.071;entryDx=0;entryDy=0;entryPerimeter=0;" parent="8-loA80qppVBk1mBf-55-22" source="8-loA80qppVBk1mBf-55-29" target="8-loA80qppVBk1mBf-55-29" edge="1">
          <mxGeometry relative="1" as="geometry" />
        </mxCell>
        <mxCell id="8-loA80qppVBk1mBf-55-34" value="EniFactory" style="swimlane;whiteSpace=wrap;html=1;" parent="8-loA80qppVBk1mBf-55-22" vertex="1">
          <mxGeometry x="30" y="470" width="190" height="110" as="geometry" />
        </mxCell>
        <mxCell id="8-loA80qppVBk1mBf-55-45" value="Control (Interface)" style="swimlane;whiteSpace=wrap;html=1;startSize=23;" parent="1" vertex="1">
          <mxGeometry x="761" y="510" width="200" height="250" as="geometry" />
        </mxCell>
        <mxCell id="8-loA80qppVBk1mBf-55-46" value="EniInvoice" style="text;strokeColor=none;align=center;fillColor=none;html=1;verticalAlign=middle;whiteSpace=wrap;rounded=0;" parent="8-loA80qppVBk1mBf-55-45" vertex="1">
          <mxGeometry y="210" width="200" height="40" as="geometry" />
        </mxCell>
        <mxCell id="8-loA80qppVBk1mBf-55-47" value="ArvalExport" style="text;strokeColor=none;align=center;fillColor=none;html=1;verticalAlign=middle;whiteSpace=wrap;rounded=0;" parent="8-loA80qppVBk1mBf-55-45" vertex="1">
          <mxGeometry y="90" width="200" height="40" as="geometry" />
        </mxCell>
        <mxCell id="8-loA80qppVBk1mBf-55-48" value="AlphabetExport" style="text;strokeColor=none;align=center;fillColor=none;html=1;verticalAlign=middle;whiteSpace=wrap;rounded=0;" parent="8-loA80qppVBk1mBf-55-45" vertex="1">
          <mxGeometry y="130" width="200" height="40" as="geometry" />
        </mxCell>
        <mxCell id="8-loA80qppVBk1mBf-55-49" value="EcoreExport" style="text;strokeColor=none;align=center;fillColor=none;html=1;verticalAlign=middle;whiteSpace=wrap;rounded=0;" parent="8-loA80qppVBk1mBf-55-45" vertex="1">
          <mxGeometry y="170" width="200" height="40" as="geometry" />
        </mxCell>
        <mxCell id="8-loA80qppVBk1mBf-55-60" value="start()&lt;br&gt;end()" style="text;strokeColor=none;align=center;fillColor=none;html=1;verticalAlign=middle;whiteSpace=wrap;rounded=0;" parent="8-loA80qppVBk1mBf-55-45" vertex="1">
          <mxGeometry y="30" width="200" height="40" as="geometry" />
        </mxCell>
        <mxCell id="8-loA80qppVBk1mBf-55-50" value="static createControl(): Control" style="text;strokeColor=none;align=center;fillColor=none;html=1;verticalAlign=middle;whiteSpace=wrap;rounded=0;" parent="1" vertex="1">
          <mxGeometry x="1135" y="450" width="160" height="30" as="geometry" />
        </mxCell>
        <mxCell id="8-loA80qppVBk1mBf-55-51" value="Controller" style="swimlane;whiteSpace=wrap;html=1;" parent="1" vertex="1">
          <mxGeometry x="551" y="240" width="210" height="180" as="geometry" />
        </mxCell>
        <mxCell id="8-loA80qppVBk1mBf-55-56" value="Create invoice, export or control depending on client" style="text;strokeColor=none;align=center;fillColor=none;html=1;verticalAlign=middle;whiteSpace=wrap;rounded=0;" parent="8-loA80qppVBk1mBf-55-51" vertex="1">
          <mxGeometry y="40" width="210" height="50" as="geometry" />
        </mxCell>
        <mxCell id="8-loA80qppVBk1mBf-55-57" value="Works with generic invoice, export or control" style="text;strokeColor=none;align=center;fillColor=none;html=1;verticalAlign=middle;whiteSpace=wrap;rounded=0;" parent="1" vertex="1">
          <mxGeometry x="551" y="345" width="210" height="50" as="geometry" />
        </mxCell>
        <mxCell id="8-loA80qppVBk1mBf-55-61" style="edgeStyle=orthogonalEdgeStyle;rounded=0;orthogonalLoop=1;jettySize=auto;html=1;exitX=1;exitY=0.5;exitDx=0;exitDy=0;entryX=0.5;entryY=0;entryDx=0;entryDy=0;" parent="1" source="8-loA80qppVBk1mBf-55-56" target="8-loA80qppVBk1mBf-55-22" edge="1">
          <mxGeometry relative="1" as="geometry" />
        </mxCell>
        <mxCell id="8-loA80qppVBk1mBf-55-149" value="AbstractFactory" style="text;strokeColor=none;align=center;fillColor=none;html=1;verticalAlign=middle;whiteSpace=wrap;rounded=0;fontSize=33;" parent="1" vertex="1">
          <mxGeometry x="26" y="40" width="1590" height="80" as="geometry" />
        </mxCell>
        <mxCell id="8-loA80qppVBk1mBf-55-153" value="" style="endArrow=none;dashed=1;html=1;rounded=0;" parent="1" edge="1">
          <mxGeometry width="50" height="50" relative="1" as="geometry">
            <mxPoint x="1020" y="1730" as="sourcePoint" />
            <mxPoint x="1070" y="1680" as="targetPoint" />
          </mxGeometry>
        </mxCell>
        <mxCell id="8-loA80qppVBk1mBf-55-154" value="" style="endArrow=none;dashed=1;html=1;rounded=0;" parent="1" edge="1">
          <mxGeometry width="50" height="50" relative="1" as="geometry">
            <mxPoint x="1020" y="1730" as="sourcePoint" />
            <mxPoint x="1070" y="1680" as="targetPoint" />
          </mxGeometry>
        </mxCell>
        <mxCell id="8-loA80qppVBk1mBf-55-107" value="_ (Interface)" style="swimlane;whiteSpace=wrap;html=1;" parent="1" vertex="1">
          <mxGeometry x="361" y="1700" width="200" height="250" as="geometry" />
        </mxCell>
        <mxCell id="8-loA80qppVBk1mBf-55-108" value="_ _" style="text;strokeColor=none;align=center;fillColor=none;html=1;verticalAlign=middle;whiteSpace=wrap;rounded=0;" parent="8-loA80qppVBk1mBf-55-107" vertex="1">
          <mxGeometry y="170" width="200" height="40" as="geometry" />
        </mxCell>
        <mxCell id="8-loA80qppVBk1mBf-55-109" value="_ _" style="text;strokeColor=none;align=center;fillColor=none;html=1;verticalAlign=middle;whiteSpace=wrap;rounded=0;" parent="8-loA80qppVBk1mBf-55-107" vertex="1">
          <mxGeometry y="210" width="200" height="40" as="geometry" />
        </mxCell>
        <mxCell id="8-loA80qppVBk1mBf-55-110" value="_ _" style="text;strokeColor=none;align=center;fillColor=none;html=1;verticalAlign=middle;whiteSpace=wrap;rounded=0;" parent="8-loA80qppVBk1mBf-55-107" vertex="1">
          <mxGeometry y="130" width="200" height="40" as="geometry" />
        </mxCell>
        <mxCell id="8-loA80qppVBk1mBf-55-111" value="_ _" style="text;strokeColor=none;align=center;fillColor=none;html=1;verticalAlign=middle;whiteSpace=wrap;rounded=0;" parent="8-loA80qppVBk1mBf-55-107" vertex="1">
          <mxGeometry y="90" width="200" height="40" as="geometry" />
        </mxCell>
        <mxCell id="8-loA80qppVBk1mBf-55-112" value="_()" style="text;strokeColor=none;align=center;fillColor=none;html=1;verticalAlign=middle;whiteSpace=wrap;rounded=0;" parent="8-loA80qppVBk1mBf-55-107" vertex="1">
          <mxGeometry y="40" width="200" height="30" as="geometry" />
        </mxCell>
        <mxCell id="8-loA80qppVBk1mBf-55-113" value="_ (Interface)" style="swimlane;whiteSpace=wrap;html=1;startSize=23;" parent="1" vertex="1">
          <mxGeometry x="561" y="1700" width="200" height="250" as="geometry" />
        </mxCell>
        <mxCell id="8-loA80qppVBk1mBf-55-114" value="_ _" style="text;strokeColor=none;align=center;fillColor=none;html=1;verticalAlign=middle;whiteSpace=wrap;rounded=0;" parent="8-loA80qppVBk1mBf-55-113" vertex="1">
          <mxGeometry y="210" width="200" height="40" as="geometry" />
        </mxCell>
        <mxCell id="8-loA80qppVBk1mBf-55-115" value="_ _" style="text;strokeColor=none;align=center;fillColor=none;html=1;verticalAlign=middle;whiteSpace=wrap;rounded=0;" parent="8-loA80qppVBk1mBf-55-113" vertex="1">
          <mxGeometry y="90" width="200" height="40" as="geometry" />
        </mxCell>
        <mxCell id="8-loA80qppVBk1mBf-55-116" value="_ _" style="text;strokeColor=none;align=center;fillColor=none;html=1;verticalAlign=middle;whiteSpace=wrap;rounded=0;" parent="8-loA80qppVBk1mBf-55-113" vertex="1">
          <mxGeometry y="130" width="200" height="40" as="geometry" />
        </mxCell>
        <mxCell id="8-loA80qppVBk1mBf-55-117" value="_ _" style="text;strokeColor=none;align=center;fillColor=none;html=1;verticalAlign=middle;whiteSpace=wrap;rounded=0;" parent="8-loA80qppVBk1mBf-55-113" vertex="1">
          <mxGeometry y="170" width="200" height="40" as="geometry" />
        </mxCell>
        <mxCell id="8-loA80qppVBk1mBf-55-118" value="_()" style="text;strokeColor=none;align=center;fillColor=none;html=1;verticalAlign=middle;whiteSpace=wrap;rounded=0;" parent="8-loA80qppVBk1mBf-55-113" vertex="1">
          <mxGeometry y="40" width="200" height="30" as="geometry" />
        </mxCell>
        <mxCell id="8-loA80qppVBk1mBf-55-119" value="" style="endArrow=none;dashed=1;html=1;rounded=0;" parent="1" edge="1">
          <mxGeometry width="50" height="50" relative="1" as="geometry">
            <mxPoint x="261" y="1830" as="sourcePoint" />
            <mxPoint x="987" y="1830" as="targetPoint" />
          </mxGeometry>
        </mxCell>
        <mxCell id="8-loA80qppVBk1mBf-55-120" value="" style="endArrow=none;dashed=1;html=1;rounded=0;" parent="1" edge="1">
          <mxGeometry width="50" height="50" relative="1" as="geometry">
            <mxPoint x="261" y="1870" as="sourcePoint" />
            <mxPoint x="987" y="1870" as="targetPoint" />
          </mxGeometry>
        </mxCell>
        <mxCell id="8-loA80qppVBk1mBf-55-121" value="" style="endArrow=none;dashed=1;html=1;rounded=0;" parent="1" edge="1">
          <mxGeometry width="50" height="50" relative="1" as="geometry">
            <mxPoint x="261" y="1910" as="sourcePoint" />
            <mxPoint x="987" y="1910" as="targetPoint" />
          </mxGeometry>
        </mxCell>
        <mxCell id="8-loA80qppVBk1mBf-55-122" value="" style="endArrow=none;dashed=1;html=1;rounded=0;" parent="1" edge="1">
          <mxGeometry width="50" height="50" relative="1" as="geometry">
            <mxPoint x="262" y="1790" as="sourcePoint" />
            <mxPoint x="987" y="1790" as="targetPoint" />
          </mxGeometry>
        </mxCell>
        <mxCell id="8-loA80qppVBk1mBf-55-123" value="" style="endArrow=none;dashed=1;html=1;rounded=0;" parent="1" edge="1">
          <mxGeometry width="50" height="50" relative="1" as="geometry">
            <mxPoint x="260" y="1950" as="sourcePoint" />
            <mxPoint x="780" y="1950" as="targetPoint" />
          </mxGeometry>
        </mxCell>
        <mxCell id="8-loA80qppVBk1mBf-55-124" value="_" style="text;strokeColor=none;align=center;fillColor=none;html=1;verticalAlign=middle;whiteSpace=wrap;rounded=0;" parent="1" vertex="1">
          <mxGeometry x="271" y="1795" width="60" height="30" as="geometry" />
        </mxCell>
        <mxCell id="8-loA80qppVBk1mBf-55-125" value="_" style="text;strokeColor=none;align=center;fillColor=none;html=1;verticalAlign=middle;whiteSpace=wrap;rounded=0;" parent="1" vertex="1">
          <mxGeometry x="269" y="1835" width="60" height="30" as="geometry" />
        </mxCell>
        <mxCell id="8-loA80qppVBk1mBf-55-126" value="_" style="text;strokeColor=none;align=center;fillColor=none;html=1;verticalAlign=middle;whiteSpace=wrap;rounded=0;" parent="1" vertex="1">
          <mxGeometry x="269" y="1875" width="60" height="30" as="geometry" />
        </mxCell>
        <mxCell id="8-loA80qppVBk1mBf-55-127" value="_" style="text;strokeColor=none;align=center;fillColor=none;html=1;verticalAlign=middle;whiteSpace=wrap;rounded=0;" parent="1" vertex="1">
          <mxGeometry x="269" y="1916" width="60" height="30" as="geometry" />
        </mxCell>
        <mxCell id="8-loA80qppVBk1mBf-55-130" value="Abstract_Factory" style="swimlane;whiteSpace=wrap;html=1;" parent="1" vertex="1">
          <mxGeometry x="1097" y="1540" width="250" height="600" as="geometry" />
        </mxCell>
        <mxCell id="8-loA80qppVBk1mBf-55-131" value="static create_(): Invoice" style="text;strokeColor=none;align=center;fillColor=none;html=1;verticalAlign=middle;whiteSpace=wrap;rounded=0;" parent="8-loA80qppVBk1mBf-55-130" vertex="1">
          <mxGeometry x="20" y="40" width="200" height="30" as="geometry" />
        </mxCell>
        <mxCell id="8-loA80qppVBk1mBf-55-132" value="static create_(): Export" style="text;strokeColor=none;align=center;fillColor=none;html=1;verticalAlign=middle;whiteSpace=wrap;rounded=0;" parent="8-loA80qppVBk1mBf-55-130" vertex="1">
          <mxGeometry x="38" y="70" width="160" height="30" as="geometry" />
        </mxCell>
        <mxCell id="8-loA80qppVBk1mBf-55-133" value="_Factory" style="swimlane;whiteSpace=wrap;html=1;" parent="8-loA80qppVBk1mBf-55-130" vertex="1">
          <mxGeometry x="30" y="140" width="190" height="100" as="geometry" />
        </mxCell>
        <mxCell id="8-loA80qppVBk1mBf-55-134" value="_Factory" style="swimlane;whiteSpace=wrap;html=1;" parent="8-loA80qppVBk1mBf-55-130" vertex="1">
          <mxGeometry x="30" y="250" width="190" height="100" as="geometry" />
        </mxCell>
        <mxCell id="8-loA80qppVBk1mBf-55-135" value="_Factory" style="swimlane;whiteSpace=wrap;html=1;" parent="8-loA80qppVBk1mBf-55-130" vertex="1">
          <mxGeometry x="30" y="360" width="190" height="100" as="geometry" />
        </mxCell>
        <mxCell id="8-loA80qppVBk1mBf-55-136" style="edgeStyle=orthogonalEdgeStyle;rounded=0;orthogonalLoop=1;jettySize=auto;html=1;exitX=0.5;exitY=0;exitDx=0;exitDy=0;entryX=0.499;entryY=0.071;entryDx=0;entryDy=0;entryPerimeter=0;" parent="8-loA80qppVBk1mBf-55-130" source="8-loA80qppVBk1mBf-55-134" target="8-loA80qppVBk1mBf-55-134" edge="1">
          <mxGeometry relative="1" as="geometry" />
        </mxCell>
        <mxCell id="8-loA80qppVBk1mBf-55-137" value="_Factory" style="swimlane;whiteSpace=wrap;html=1;" parent="8-loA80qppVBk1mBf-55-130" vertex="1">
          <mxGeometry x="30" y="470" width="190" height="110" as="geometry" />
        </mxCell>
        <mxCell id="8-loA80qppVBk1mBf-55-138" value="_ (Interface)" style="swimlane;whiteSpace=wrap;html=1;startSize=23;" parent="1" vertex="1">
          <mxGeometry x="761" y="1700" width="200" height="250" as="geometry" />
        </mxCell>
        <mxCell id="8-loA80qppVBk1mBf-55-139" value="_ _" style="text;strokeColor=none;align=center;fillColor=none;html=1;verticalAlign=middle;whiteSpace=wrap;rounded=0;" parent="8-loA80qppVBk1mBf-55-138" vertex="1">
          <mxGeometry y="210" width="200" height="40" as="geometry" />
        </mxCell>
        <mxCell id="8-loA80qppVBk1mBf-55-140" value="_ _" style="text;strokeColor=none;align=center;fillColor=none;html=1;verticalAlign=middle;whiteSpace=wrap;rounded=0;" parent="8-loA80qppVBk1mBf-55-138" vertex="1">
          <mxGeometry y="90" width="200" height="40" as="geometry" />
        </mxCell>
        <mxCell id="8-loA80qppVBk1mBf-55-141" value="_ _" style="text;strokeColor=none;align=center;fillColor=none;html=1;verticalAlign=middle;whiteSpace=wrap;rounded=0;" parent="8-loA80qppVBk1mBf-55-138" vertex="1">
          <mxGeometry y="130" width="200" height="40" as="geometry" />
        </mxCell>
        <mxCell id="8-loA80qppVBk1mBf-55-142" value="_ _" style="text;strokeColor=none;align=center;fillColor=none;html=1;verticalAlign=middle;whiteSpace=wrap;rounded=0;" parent="8-loA80qppVBk1mBf-55-138" vertex="1">
          <mxGeometry y="170" width="200" height="40" as="geometry" />
        </mxCell>
        <mxCell id="8-loA80qppVBk1mBf-55-143" value="_()" style="text;strokeColor=none;align=center;fillColor=none;html=1;verticalAlign=middle;whiteSpace=wrap;rounded=0;" parent="8-loA80qppVBk1mBf-55-138" vertex="1">
          <mxGeometry y="40" width="200" height="30" as="geometry" />
        </mxCell>
        <mxCell id="8-loA80qppVBk1mBf-55-128" style="edgeStyle=orthogonalEdgeStyle;rounded=0;orthogonalLoop=1;jettySize=auto;html=1;exitX=0;exitY=0.5;exitDx=0;exitDy=0;entryX=1;entryY=0.25;entryDx=0;entryDy=0;" parent="1" source="8-loA80qppVBk1mBf-55-130" target="8-loA80qppVBk1mBf-55-141" edge="1">
          <mxGeometry relative="1" as="geometry" />
        </mxCell>
        <mxCell id="8-loA80qppVBk1mBf-55-144" value="static create_(): Control" style="text;strokeColor=none;align=center;fillColor=none;html=1;verticalAlign=middle;whiteSpace=wrap;rounded=0;" parent="1" vertex="1">
          <mxGeometry x="1135" y="1640" width="160" height="30" as="geometry" />
        </mxCell>
        <mxCell id="8-loA80qppVBk1mBf-55-145" value="Controller or any Service" style="swimlane;whiteSpace=wrap;html=1;" parent="1" vertex="1">
          <mxGeometry x="551" y="1430" width="210" height="180" as="geometry" />
        </mxCell>
        <mxCell id="8-loA80qppVBk1mBf-55-146" value="Create _, _ or _ depending on _" style="text;strokeColor=none;align=center;fillColor=none;html=1;verticalAlign=middle;whiteSpace=wrap;rounded=0;" parent="8-loA80qppVBk1mBf-55-145" vertex="1">
          <mxGeometry y="30" width="210" height="50" as="geometry" />
        </mxCell>
        <mxCell id="8-loA80qppVBk1mBf-55-165" value="" style="edgeStyle=orthogonalEdgeStyle;rounded=0;orthogonalLoop=1;jettySize=auto;html=1;" parent="1" source="8-loA80qppVBk1mBf-55-147" target="8-loA80qppVBk1mBf-55-164" edge="1">
          <mxGeometry relative="1" as="geometry" />
        </mxCell>
        <mxCell id="8-loA80qppVBk1mBf-55-147" value="Works with generic _, _ or _" style="text;strokeColor=none;align=center;fillColor=none;html=1;verticalAlign=middle;whiteSpace=wrap;rounded=0;" parent="1" vertex="1">
          <mxGeometry x="551" y="1535" width="210" height="50" as="geometry" />
        </mxCell>
        <mxCell id="8-loA80qppVBk1mBf-55-129" style="edgeStyle=orthogonalEdgeStyle;rounded=0;orthogonalLoop=1;jettySize=auto;html=1;exitX=0;exitY=0.25;exitDx=0;exitDy=0;entryX=1;entryY=0.75;entryDx=0;entryDy=0;" parent="1" source="8-loA80qppVBk1mBf-55-130" target="8-loA80qppVBk1mBf-55-146" edge="1">
          <mxGeometry relative="1" as="geometry">
            <Array as="points">
              <mxPoint x="1097" y="1590" />
              <mxPoint x="929" y="1590" />
              <mxPoint x="929" y="1508" />
            </Array>
          </mxGeometry>
        </mxCell>
        <mxCell id="8-loA80qppVBk1mBf-55-148" style="edgeStyle=orthogonalEdgeStyle;rounded=0;orthogonalLoop=1;jettySize=auto;html=1;exitX=1;exitY=0.5;exitDx=0;exitDy=0;entryX=0.5;entryY=0;entryDx=0;entryDy=0;" parent="1" source="8-loA80qppVBk1mBf-55-146" target="8-loA80qppVBk1mBf-55-130" edge="1">
          <mxGeometry relative="1" as="geometry" />
        </mxCell>
        <mxCell id="8-loA80qppVBk1mBf-55-151" value="AbstractFactory" style="text;strokeColor=none;align=center;fillColor=none;html=1;verticalAlign=middle;whiteSpace=wrap;rounded=0;fontSize=33;" parent="1" vertex="1">
          <mxGeometry x="26" y="1300" width="1590" height="80" as="geometry" />
        </mxCell>
        <mxCell id="8-loA80qppVBk1mBf-55-164" value="Objectif" style="whiteSpace=wrap;html=1;fontStyle=1;fontSize=16;fontColor=#FF3A24;" parent="1" vertex="1">
          <mxGeometry x="306" y="1530" width="120" height="60" as="geometry" />
        </mxCell>
      </root>
    </mxGraphModel>
  </diagram>
  <diagram id="UEPJLG08xjTo9XI1EAtX" name="Adapter">
    <mxGraphModel dx="2049" dy="1151" grid="1" gridSize="10" guides="1" tooltips="1" connect="1" arrows="1" fold="1" page="1" pageScale="1" pageWidth="827" pageHeight="1169" math="0" shadow="0">
      <root>
        <mxCell id="0" />
        <mxCell id="1" parent="0" />
        <mxCell id="X05ygXeDYU1qzmgjns1s-14" value="" style="whiteSpace=wrap;html=1;aspect=fixed;" parent="1" vertex="1">
          <mxGeometry x="627" y="405" width="405" height="405" as="geometry" />
        </mxCell>
        <mxCell id="X05ygXeDYU1qzmgjns1s-1" value="Service" style="swimlane;whiteSpace=wrap;html=1;" parent="1" vertex="1">
          <mxGeometry x="1137" y="520" width="210" height="180" as="geometry" />
        </mxCell>
        <mxCell id="X05ygXeDYU1qzmgjns1s-2" value="__construct(cacheInterface $cache)&lt;br&gt;&lt;br&gt;get()&lt;br&gt;set()&lt;br&gt;delete()" style="text;strokeColor=none;align=center;fillColor=none;html=1;verticalAlign=middle;whiteSpace=wrap;rounded=0;" parent="X05ygXeDYU1qzmgjns1s-1" vertex="1">
          <mxGeometry y="65" width="210" height="80" as="geometry" />
        </mxCell>
        <mxCell id="X05ygXeDYU1qzmgjns1s-4" value="Adapter" style="text;strokeColor=none;align=center;fillColor=none;html=1;verticalAlign=middle;whiteSpace=wrap;rounded=0;fontSize=33;" parent="1" vertex="1">
          <mxGeometry x="26" y="40" width="1590" height="80" as="geometry" />
        </mxCell>
        <mxCell id="X05ygXeDYU1qzmgjns1s-5" value="SlowPowerfulCache" style="swimlane;whiteSpace=wrap;html=1;" parent="1" vertex="1">
          <mxGeometry x="296" y="397.5" width="210" height="180" as="geometry" />
        </mxCell>
        <mxCell id="X05ygXeDYU1qzmgjns1s-6" value="dispose de&amp;nbsp;&lt;br&gt;&lt;br&gt;getCacheKey()&lt;br&gt;setCacheKey()&lt;br&gt;remove()" style="text;strokeColor=none;align=center;fillColor=none;html=1;verticalAlign=middle;whiteSpace=wrap;rounded=0;" parent="X05ygXeDYU1qzmgjns1s-5" vertex="1">
          <mxGeometry y="70" width="210" height="50" as="geometry" />
        </mxCell>
        <mxCell id="X05ygXeDYU1qzmgjns1s-7" value="CacheInterface" style="swimlane;whiteSpace=wrap;html=1;" parent="1" vertex="1">
          <mxGeometry x="724.5" y="240" width="210" height="110" as="geometry" />
        </mxCell>
        <mxCell id="X05ygXeDYU1qzmgjns1s-8" value="get()&lt;br&gt;set()&lt;br&gt;delete()" style="text;strokeColor=none;align=center;fillColor=none;html=1;verticalAlign=middle;whiteSpace=wrap;rounded=0;" parent="X05ygXeDYU1qzmgjns1s-7" vertex="1">
          <mxGeometry y="45" width="210" height="50" as="geometry" />
        </mxCell>
        <mxCell id="X05ygXeDYU1qzmgjns1s-10" value="SlowCacheAdapter" style="swimlane;whiteSpace=wrap;html=1;" parent="1" vertex="1">
          <mxGeometry x="727" y="430" width="210" height="150" as="geometry" />
        </mxCell>
        <mxCell id="X05ygXeDYU1qzmgjns1s-12" value="__construct(cacheService $cache)&lt;br&gt;&lt;br&gt;get() with getCacheKey()&lt;br&gt;set() with seCacheKey()&lt;br&gt;delete() with remove()" style="text;strokeColor=none;align=center;fillColor=none;html=1;verticalAlign=middle;whiteSpace=wrap;rounded=0;" parent="X05ygXeDYU1qzmgjns1s-10" vertex="1">
          <mxGeometry y="60" width="210" height="50" as="geometry" />
        </mxCell>
        <mxCell id="mRUuen3FEZqygHMQL49R-1" value="FastUsefoolCache" style="swimlane;whiteSpace=wrap;html=1;" parent="1" vertex="1">
          <mxGeometry x="295" y="637.5" width="210" height="180" as="geometry" />
        </mxCell>
        <mxCell id="mRUuen3FEZqygHMQL49R-2" value="dispose de&amp;nbsp;&lt;br&gt;&lt;br&gt;getKey()&lt;br&gt;setKey()&lt;br&gt;remove()" style="text;strokeColor=none;align=center;fillColor=none;html=1;verticalAlign=middle;whiteSpace=wrap;rounded=0;" parent="mRUuen3FEZqygHMQL49R-1" vertex="1">
          <mxGeometry y="70" width="210" height="50" as="geometry" />
        </mxCell>
        <mxCell id="mRUuen3FEZqygHMQL49R-3" value="FastCacheAdapter" style="swimlane;whiteSpace=wrap;html=1;startSize=23;" parent="1" vertex="1">
          <mxGeometry x="727" y="610" width="210" height="150" as="geometry" />
        </mxCell>
        <mxCell id="mRUuen3FEZqygHMQL49R-4" value="__construct(cacheService $cache)&lt;br&gt;&lt;br&gt;get() with getKey()&lt;br&gt;set() with setKey()&lt;br&gt;delete() with remove()" style="text;strokeColor=none;align=center;fillColor=none;html=1;verticalAlign=middle;whiteSpace=wrap;rounded=0;" parent="mRUuen3FEZqygHMQL49R-3" vertex="1">
          <mxGeometry y="60" width="210" height="50" as="geometry" />
        </mxCell>
        <mxCell id="X05ygXeDYU1qzmgjns1s-9" style="edgeStyle=orthogonalEdgeStyle;rounded=0;orthogonalLoop=1;jettySize=auto;html=1;entryX=0.5;entryY=0;entryDx=0;entryDy=0;" parent="1" source="X05ygXeDYU1qzmgjns1s-8" target="X05ygXeDYU1qzmgjns1s-1" edge="1">
          <mxGeometry relative="1" as="geometry">
            <mxPoint x="1257" y="410" as="targetPoint" />
          </mxGeometry>
        </mxCell>
      </root>
    </mxGraphModel>
  </diagram>
  <diagram id="DB6Pj2VXzU9k2tqj0ENd" name="State">
    <mxGraphModel dx="2049" dy="1151" grid="1" gridSize="10" guides="1" tooltips="1" connect="1" arrows="1" fold="1" page="1" pageScale="1" pageWidth="827" pageHeight="1169" math="0" shadow="0">
      <root>
        <mxCell id="0" />
        <mxCell id="1" parent="0" />
        <mxCell id="LAla7MCL3IrXWtc6Lhk6-1" value="" style="whiteSpace=wrap;html=1;" parent="1" vertex="1">
          <mxGeometry x="627" y="400" width="423" height="730" as="geometry" />
        </mxCell>
        <mxCell id="LAla7MCL3IrXWtc6Lhk6-4" value="State" style="text;strokeColor=none;align=center;fillColor=none;html=1;verticalAlign=middle;whiteSpace=wrap;rounded=0;fontSize=33;" parent="1" vertex="1">
          <mxGeometry x="26" y="40" width="1590" height="80" as="geometry" />
        </mxCell>
        <mxCell id="LAla7MCL3IrXWtc6Lhk6-7" value="StateInterface" style="swimlane;whiteSpace=wrap;html=1;" parent="1" vertex="1">
          <mxGeometry x="724.5" y="240" width="210" height="130" as="geometry" />
        </mxCell>
        <mxCell id="LAla7MCL3IrXWtc6Lhk6-8" value="&lt;br&gt;menu: Menu&lt;br&gt;&lt;br&gt;next()&lt;br&gt;previous()&lt;br&gt;cancel()" style="text;strokeColor=none;align=center;fillColor=none;html=1;verticalAlign=middle;whiteSpace=wrap;rounded=0;" parent="LAla7MCL3IrXWtc6Lhk6-7" vertex="1">
          <mxGeometry y="45" width="210" height="50" as="geometry" />
        </mxCell>
        <mxCell id="LAla7MCL3IrXWtc6Lhk6-9" value="identificationState" style="swimlane;whiteSpace=wrap;html=1;startSize=23;" parent="1" vertex="1">
          <mxGeometry x="727" y="430" width="210" height="150" as="geometry" />
        </mxCell>
        <mxCell id="LAla7MCL3IrXWtc6Lhk6-10" value="next(): &lt;br&gt;&lt;br&gt;doSomeStuff() &amp;amp;&amp;amp; return new emailState(menu)&lt;br&gt;&lt;br&gt;&lt;br&gt;previous()&lt;br&gt;cancel()" style="text;strokeColor=none;align=center;fillColor=none;html=1;verticalAlign=middle;whiteSpace=wrap;rounded=0;" parent="LAla7MCL3IrXWtc6Lhk6-9" vertex="1">
          <mxGeometry y="60" width="210" height="50" as="geometry" />
        </mxCell>
        <mxCell id="LAla7MCL3IrXWtc6Lhk6-13" value="emailState" style="swimlane;whiteSpace=wrap;html=1;startSize=23;" parent="1" vertex="1">
          <mxGeometry x="724.5" y="600" width="210" height="150" as="geometry" />
        </mxCell>
        <mxCell id="LAla7MCL3IrXWtc6Lhk6-14" value="next(): &lt;br&gt;&lt;br&gt;doSomeStuff() &amp;amp;&amp;amp; return new personalInfoState(menu)&lt;br&gt;&lt;br style=&quot;border-color: var(--border-color);&quot;&gt;previous()&lt;br style=&quot;border-color: var(--border-color);&quot;&gt;cancel()" style="text;strokeColor=none;align=center;fillColor=none;html=1;verticalAlign=middle;whiteSpace=wrap;rounded=0;" parent="LAla7MCL3IrXWtc6Lhk6-13" vertex="1">
          <mxGeometry y="60" width="210" height="50" as="geometry" />
        </mxCell>
        <mxCell id="LAla7MCL3IrXWtc6Lhk6-15" style="edgeStyle=orthogonalEdgeStyle;rounded=0;orthogonalLoop=1;jettySize=auto;html=1;entryX=0.003;entryY=0.168;entryDx=0;entryDy=0;exitX=1;exitY=0.75;exitDx=0;exitDy=0;entryPerimeter=0;" parent="1" source="LAla7MCL3IrXWtc6Lhk6-19" target="LAla7MCL3IrXWtc6Lhk6-1" edge="1">
          <mxGeometry relative="1" as="geometry">
            <mxPoint x="1242" y="520" as="targetPoint" />
          </mxGeometry>
        </mxCell>
        <mxCell id="LAla7MCL3IrXWtc6Lhk6-16" value="Menu" style="swimlane;whiteSpace=wrap;html=1;startSize=23;" parent="1" vertex="1">
          <mxGeometry x="260" y="430" width="210" height="280" as="geometry" />
        </mxCell>
        <mxCell id="LAla7MCL3IrXWtc6Lhk6-17" value="state: State" style="text;strokeColor=none;align=center;fillColor=none;html=1;verticalAlign=middle;whiteSpace=wrap;rounded=0;" parent="LAla7MCL3IrXWtc6Lhk6-16" vertex="1">
          <mxGeometry y="28" width="210" height="50" as="geometry" />
        </mxCell>
        <mxCell id="LAla7MCL3IrXWtc6Lhk6-18" value="setState(): State" style="text;strokeColor=none;align=center;fillColor=none;html=1;verticalAlign=middle;whiteSpace=wrap;rounded=0;" parent="1" vertex="1">
          <mxGeometry x="260" y="506" width="210" height="50" as="geometry" />
        </mxCell>
        <mxCell id="LAla7MCL3IrXWtc6Lhk6-19" value="onNext()&lt;br&gt;onPrevious()&lt;br&gt;onCancel()" style="text;strokeColor=none;align=center;fillColor=none;html=1;verticalAlign=middle;whiteSpace=wrap;rounded=0;" parent="1" vertex="1">
          <mxGeometry x="260" y="569" width="210" height="50" as="geometry" />
        </mxCell>
        <mxCell id="LAla7MCL3IrXWtc6Lhk6-21" value="personalInfoState" style="swimlane;whiteSpace=wrap;html=1;startSize=23;" parent="1" vertex="1">
          <mxGeometry x="727" y="770" width="210" height="150" as="geometry" />
        </mxCell>
        <mxCell id="LAla7MCL3IrXWtc6Lhk6-22" value="next():&lt;br&gt;&lt;br&gt;doSomeStuff() &amp;amp;&amp;amp;&lt;br&gt;return new cguState(menu)&lt;br&gt;&amp;nbsp;&lt;br style=&quot;border-color: var(--border-color);&quot;&gt;previous()&lt;br style=&quot;border-color: var(--border-color);&quot;&gt;cancel()" style="text;strokeColor=none;align=center;fillColor=none;html=1;verticalAlign=middle;whiteSpace=wrap;rounded=0;" parent="LAla7MCL3IrXWtc6Lhk6-21" vertex="1">
          <mxGeometry y="60" width="210" height="50" as="geometry" />
        </mxCell>
        <mxCell id="LAla7MCL3IrXWtc6Lhk6-23" value="cguState" style="swimlane;whiteSpace=wrap;html=1;startSize=23;" parent="1" vertex="1">
          <mxGeometry x="727" y="940" width="210" height="150" as="geometry" />
        </mxCell>
        <mxCell id="LAla7MCL3IrXWtc6Lhk6-24" value="next():&lt;br&gt;&lt;br&gt;doSomeStuff() &amp;amp;&amp;amp; redirect()&lt;br&gt;&lt;br style=&quot;border-color: var(--border-color);&quot;&gt;previous()&lt;br style=&quot;border-color: var(--border-color);&quot;&gt;cancel()" style="text;strokeColor=none;align=center;fillColor=none;html=1;verticalAlign=middle;whiteSpace=wrap;rounded=0;" parent="LAla7MCL3IrXWtc6Lhk6-23" vertex="1">
          <mxGeometry y="60" width="210" height="50" as="geometry" />
        </mxCell>
      </root>
    </mxGraphModel>
  </diagram>
  <diagram id="ju1xQBqzYFV-bU10ZfMv" name="Strategy">
    <mxGraphModel dx="1434" dy="806" grid="1" gridSize="10" guides="1" tooltips="1" connect="1" arrows="1" fold="1" page="1" pageScale="1" pageWidth="827" pageHeight="1169" math="0" shadow="0">
      <root>
        <mxCell id="0" />
        <mxCell id="1" parent="0" />
      </root>
    </mxGraphModel>
  </diagram>
  <diagram id="6rQaX9mvDmJPaHzqGD7Q" name="Bridge">
    <mxGraphModel dx="1434" dy="806" grid="1" gridSize="10" guides="1" tooltips="1" connect="1" arrows="1" fold="1" page="1" pageScale="1" pageWidth="827" pageHeight="1169" math="0" shadow="0">
      <root>
        <mxCell id="0" />
        <mxCell id="1" parent="0" />
      </root>
    </mxGraphModel>
  </diagram>
  <diagram id="JgnKeJbdvOuaOK1Llmrk" name="Decorator">
    <mxGraphModel dx="2049" dy="1151" grid="1" gridSize="10" guides="1" tooltips="1" connect="1" arrows="1" fold="1" page="1" pageScale="1" pageWidth="827" pageHeight="1169" math="0" shadow="0">
      <root>
        <mxCell id="0" />
        <mxCell id="1" parent="0" />
        <mxCell id="Kl2uvvCn8u-AwjN_c5jD-22" value="" style="whiteSpace=wrap;html=1;" vertex="1" parent="1">
          <mxGeometry x="380" y="130" width="790" height="1030" as="geometry" />
        </mxCell>
        <mxCell id="Kl2uvvCn8u-AwjN_c5jD-1" value="" style="whiteSpace=wrap;html=1;" vertex="1" parent="1">
          <mxGeometry x="745.5" y="400" width="373" height="730" as="geometry" />
        </mxCell>
        <mxCell id="Kl2uvvCn8u-AwjN_c5jD-2" value="Decorator" style="text;strokeColor=none;align=center;fillColor=none;html=1;verticalAlign=middle;whiteSpace=wrap;rounded=0;fontSize=33;" vertex="1" parent="1">
          <mxGeometry x="26" y="40" width="1590" height="80" as="geometry" />
        </mxCell>
        <mxCell id="Kl2uvvCn8u-AwjN_c5jD-3" value="Interface DataSource" style="swimlane;whiteSpace=wrap;html=1;" vertex="1" parent="1">
          <mxGeometry x="670" y="160" width="210" height="130" as="geometry" />
        </mxCell>
        <mxCell id="Kl2uvvCn8u-AwjN_c5jD-4" value="&lt;br&gt;menu: Menu&lt;br&gt;&lt;br&gt;next()&lt;br&gt;previous()&lt;br&gt;cancel()" style="text;strokeColor=none;align=center;fillColor=none;html=1;verticalAlign=middle;whiteSpace=wrap;rounded=0;" vertex="1" parent="Kl2uvvCn8u-AwjN_c5jD-3">
          <mxGeometry y="45" width="210" height="50" as="geometry" />
        </mxCell>
        <mxCell id="Kl2uvvCn8u-AwjN_c5jD-10" value="Menu" style="swimlane;whiteSpace=wrap;html=1;startSize=23;" vertex="1" parent="1">
          <mxGeometry x="110" y="420" width="210" height="280" as="geometry" />
        </mxCell>
        <mxCell id="Kl2uvvCn8u-AwjN_c5jD-11" value="state: State" style="text;strokeColor=none;align=center;fillColor=none;html=1;verticalAlign=middle;whiteSpace=wrap;rounded=0;" vertex="1" parent="Kl2uvvCn8u-AwjN_c5jD-10">
          <mxGeometry y="28" width="210" height="50" as="geometry" />
        </mxCell>
        <mxCell id="Kl2uvvCn8u-AwjN_c5jD-12" value="setState(): State" style="text;strokeColor=none;align=center;fillColor=none;html=1;verticalAlign=middle;whiteSpace=wrap;rounded=0;" vertex="1" parent="1">
          <mxGeometry x="110" y="496" width="210" height="50" as="geometry" />
        </mxCell>
        <mxCell id="Kl2uvvCn8u-AwjN_c5jD-13" value="onNext()&lt;br&gt;onPrevious()&lt;br&gt;onCancel()" style="text;strokeColor=none;align=center;fillColor=none;html=1;verticalAlign=middle;whiteSpace=wrap;rounded=0;" vertex="1" parent="1">
          <mxGeometry x="110" y="559" width="210" height="50" as="geometry" />
        </mxCell>
        <mxCell id="Kl2uvvCn8u-AwjN_c5jD-14" value="personalInfoState" style="swimlane;whiteSpace=wrap;html=1;startSize=23;" vertex="1" parent="1">
          <mxGeometry x="827" y="650" width="210" height="150" as="geometry" />
        </mxCell>
        <mxCell id="Kl2uvvCn8u-AwjN_c5jD-15" value="next():&lt;br&gt;&lt;br&gt;doSomeStuff() &amp;amp;&amp;amp;&lt;br&gt;return new cguState(menu)&lt;br&gt;&amp;nbsp;&lt;br style=&quot;border-color: var(--border-color);&quot;&gt;previous()&lt;br style=&quot;border-color: var(--border-color);&quot;&gt;cancel()" style="text;strokeColor=none;align=center;fillColor=none;html=1;verticalAlign=middle;whiteSpace=wrap;rounded=0;" vertex="1" parent="Kl2uvvCn8u-AwjN_c5jD-14">
          <mxGeometry y="60" width="210" height="50" as="geometry" />
        </mxCell>
        <mxCell id="Kl2uvvCn8u-AwjN_c5jD-16" value="cguState" style="swimlane;whiteSpace=wrap;html=1;startSize=23;" vertex="1" parent="1">
          <mxGeometry x="808.5" y="880" width="210" height="150" as="geometry" />
        </mxCell>
        <mxCell id="Kl2uvvCn8u-AwjN_c5jD-17" value="next():&lt;br&gt;&lt;br&gt;doSomeStuff() &amp;amp;&amp;amp; redirect()&lt;br&gt;&lt;br style=&quot;border-color: var(--border-color);&quot;&gt;previous()&lt;br style=&quot;border-color: var(--border-color);&quot;&gt;cancel()" style="text;strokeColor=none;align=center;fillColor=none;html=1;verticalAlign=middle;whiteSpace=wrap;rounded=0;" vertex="1" parent="Kl2uvvCn8u-AwjN_c5jD-16">
          <mxGeometry y="60" width="210" height="50" as="geometry" />
        </mxCell>
        <mxCell id="Kl2uvvCn8u-AwjN_c5jD-20" value="FileDataSource" style="swimlane;whiteSpace=wrap;html=1;" vertex="1" parent="1">
          <mxGeometry x="420" y="429" width="210" height="130" as="geometry" />
        </mxCell>
        <mxCell id="Kl2uvvCn8u-AwjN_c5jD-21" value="filename&lt;br&gt;&lt;br&gt;writeData()&lt;br&gt;readData()" style="text;strokeColor=none;align=center;fillColor=none;html=1;verticalAlign=middle;whiteSpace=wrap;rounded=0;" vertex="1" parent="Kl2uvvCn8u-AwjN_c5jD-20">
          <mxGeometry y="45" width="210" height="50" as="geometry" />
        </mxCell>
        <mxCell id="Kl2uvvCn8u-AwjN_c5jD-23" value="Abstract Class DataSourceDecorator" style="swimlane;whiteSpace=wrap;html=1;" vertex="1" parent="1">
          <mxGeometry x="827" y="436" width="210" height="170" as="geometry" />
        </mxCell>
        <mxCell id="Kl2uvvCn8u-AwjN_c5jD-24" value="__construct(dataSource dataSource)" style="text;strokeColor=none;align=center;fillColor=none;html=1;verticalAlign=middle;whiteSpace=wrap;rounded=0;" vertex="1" parent="Kl2uvvCn8u-AwjN_c5jD-23">
          <mxGeometry y="60" width="210" height="50" as="geometry" />
        </mxCell>
      </root>
    </mxGraphModel>
  </diagram>
</mxfile>
